# xmcd
#
# Track frame offsets: 
#        150
#        26268
#        51950
#        66600
#        97690
#        115613
#        141200
#        164183
#
# Disc length: 2583 seconds
#
# Revision: 6
# Processed by: cddbd v1.5.2PL0 Copyright (c) Steve Scherf et al.
# Submitted via: ExactAudioCopy v1.0b3
#
DISCID=6b0a1508
DTITLE=吉田美奈子 - LIGHT'N UP (紙ジャケット仕様) MHCL-415
DYEAR=2004
DGENRE=JPop
TTITLE0=LIGHT'N UP
TTITLE1=頬に夜の灯
TTITLE2=LOVE SHOWER
TTITLE3=風
TTITLE4=MORNING PRAYER
TTITLE5=斜陽 (REFLECTION)
TTITLE6=時の向こう
TTITLE7=ALCOHOLLER
EXTD=YEAR: 1982
EXTT0=
EXTT1=
EXTT2=
EXTT3=
EXTT4=
EXTT5=
EXTT6=
EXTT7=
PLAYORDER=
